{
    "asset" : {
        "generator" : "Khronos glTF Blender I/O v1.7.33",
        "version" : "2.0"
    },
    "scene" : 0,
    "scenes" : [
        {
            "name" : "Scene",
            "nodes" : [
                0
            ]
        }
    ],
    "nodes" : [
        {
            "mesh" : 0,
            "name" : "Castle_Wall_A_Bend"
        }
    ],
    "materials" : [
        {
            "doubleSided" : true,
            "name" : "Castle_Walls.006",
            "pbrMetallicRoughness" : {
                "baseColorTexture" : {
                    "index" : 0
                },
                "roughnessFactor" : 0.858578622341156
            }
        },
        {
            "doubleSided" : true,
            "name" : "Castle_Walls.008",
            "pbrMetallicRoughness" : {
                "baseColorTexture" : {
                    "index" : 1
                },
                "roughnessFactor" : 0.858578622341156
            }
        },
        {
            "doubleSided" : true,
            "name" : "Castle_Walls.009",
            "pbrMetallicRoughness" : {
                "baseColorTexture" : {
                    "index" : 2
                },
                "roughnessFactor" : 0.858578622341156
            }
        }
    ],
    "meshes" : [
        {
            "name" : "\u30e1\u30c3\u30b7\u30e5.017",
            "primitives" : [
                {
                    "attributes" : {
                        "POSITION" : 0,
                        "NORMAL" : 1,
                        "TEXCOORD_0" : 2
                    },
                    "indices" : 3,
                    "material" : 0
                },
                {
                    "attributes" : {
                        "POSITION" : 4,
                        "NORMAL" : 5,
                        "TEXCOORD_0" : 6
                    },
                    "indices" : 7,
                    "material" : 1
                },
                {
                    "attributes" : {
                        "POSITION" : 8,
                        "NORMAL" : 9,
                        "TEXCOORD_0" : 10
                    },
                    "indices" : 11,
                    "material" : 2
                }
            ]
        }
    ],
    "textures" : [
        {
            "sampler" : 0,
            "source" : 0
        },
        {
            "sampler" : 0,
            "source" : 0
        },
        {
            "sampler" : 0,
            "source" : 0
        }
    ],
    "images" : [
        {
            "bufferView" : 4,
            "mimeType" : "image/png",
            "name" : "Castle_Walls_BaseColor"
        }
    ],
    "accessors" : [
        {
            "bufferView" : 0,
            "componentType" : 5126,
            "count" : 13212,
            "max" : [
                -450.8665771484375,
                228.25222778320312,
                1.9527664184570312
            ],
            "min" : [
                -1757.763427734375,
                -231.19125366210938,
                -153.56008911132812
            ],
            "type" : "VEC3"
        },
        {
            "bufferView" : 1,
            "componentType" : 5126,
            "count" : 13212,
            "type" : "VEC3"
        },
        {
            "bufferView" : 2,
            "componentType" : 5126,
            "count" : 13212,
            "type" : "VEC2"
        },
        {
            "bufferView" : 3,
            "componentType" : 5123,
            "count" : 24384,
            "type" : "SCALAR"
        },
        {
            "bufferView" : 5,
            "componentType" : 5126,
            "count" : 1924,
            "max" : [
                -1757.759033203125,
                228.17874145507812,
                1.5886154174804688
            ],
            "min" : [
                -1758.83251953125,
                -231.19125366210938,
                -153.25537109375
            ],
            "type" : "VEC3"
        },
        {
            "bufferView" : 6,
            "componentType" : 5126,
            "count" : 1924,
            "type" : "VEC3"
        },
        {
            "bufferView" : 7,
            "componentType" : 5126,
            "count" : 1924,
            "type" : "VEC2"
        },
        {
            "bufferView" : 8,
            "componentType" : 5123,
            "count" : 4224,
            "type" : "SCALAR"
        },
        {
            "bufferView" : 9,
            "componentType" : 5126,
            "count" : 5536,
            "max" : [
                412.14080810546875,
                395.8924865722656,
                0.9197616577148438
            ],
            "min" : [
                -458.079345703125,
                -394.7937927246094,
                -154.59320068359375
            ],
            "type" : "VEC3"
        },
        {
            "bufferView" : 10,
            "componentType" : 5126,
            "count" : 5536,
            "type" : "VEC3"
        },
        {
            "bufferView" : 11,
            "componentType" : 5126,
            "count" : 5536,
            "type" : "VEC2"
        },
        {
            "bufferView" : 12,
            "componentType" : 5123,
            "count" : 28077,
            "type" : "SCALAR"
        }
    ],
    "bufferViews" : [
        {
            "buffer" : 0,
            "byteLength" : 158544,
            "byteOffset" : 0
        },
        {
            "buffer" : 0,
            "byteLength" : 158544,
            "byteOffset" : 158544
        },
        {
            "buffer" : 0,
            "byteLength" : 105696,
            "byteOffset" : 317088
        },
        {
            "buffer" : 0,
            "byteLength" : 48768,
            "byteOffset" : 422784
        },
        {
            "buffer" : 0,
            "byteLength" : 877537,
            "byteOffset" : 471552
        },
        {
            "buffer" : 0,
            "byteLength" : 23088,
            "byteOffset" : 1349092
        },
        {
            "buffer" : 0,
            "byteLength" : 23088,
            "byteOffset" : 1372180
        },
        {
            "buffer" : 0,
            "byteLength" : 15392,
            "byteOffset" : 1395268
        },
        {
            "buffer" : 0,
            "byteLength" : 8448,
            "byteOffset" : 1410660
        },
        {
            "buffer" : 0,
            "byteLength" : 66432,
            "byteOffset" : 1419108
        },
        {
            "buffer" : 0,
            "byteLength" : 66432,
            "byteOffset" : 1485540
        },
        {
            "buffer" : 0,
            "byteLength" : 44288,
            "byteOffset" : 1551972
        },
        {
            "buffer" : 0,
            "byteLength" : 56154,
            "byteOffset" : 1596260
        }
    ],
    "samplers" : [
        {
            "magFilter" : 9729,
            "minFilter" : 9987
        }
    ],
    "buffers" : [
        {
            "byteLength" : 1652416,
            "uri" : "data:application/octet-stream;base64,"
        }
    ]
}
